<svg width="21" height="21" viewBox="0 0 21 21" fill="none" xmlns="http://www.w3.org/2000/svg">
<path d="M11.5001 6.88059C10.9736 7.2584 10.3293 7.48064 9.63342 7.48064C7.85551 7.48064 6.41423 6.0299 6.41423 4.24032C6.41423 2.45074 7.85551 1 9.63342 1C10.7859 1 11.7969 1.60957 12.3656 2.52586M4.5747 17.7452H6.97556C7.28859 17.7452 7.59971 17.7827 7.90316 17.8577L10.44 18.4782C10.9904 18.6132 11.5638 18.6263 12.12 18.5176L14.9248 17.9683C15.6658 17.823 16.3473 17.4659 16.8815 16.9429L18.8659 14.9998C19.4327 14.4458 19.4327 13.5469 18.8659 12.992C18.3557 12.4924 17.5478 12.4362 16.9705 12.8599L14.6577 14.5583C14.3265 14.802 13.9235 14.9332 13.509 14.9332H11.2757L12.6972 14.9332C13.4985 14.9332 14.1475 14.2977 14.1475 13.5131V13.2291C14.1475 12.5777 13.6947 12.0097 13.0495 11.8522L10.8554 11.3151C10.4984 11.2279 10.1327 11.1839 9.76508 11.1839C8.87768 11.1839 7.27136 11.9234 7.27136 11.9234L4.5747 13.0585M17.4514 5.16613C17.4514 6.95571 16.0102 8.40645 14.2323 8.40645C12.4543 8.40645 11.0131 6.95571 11.0131 5.16613C11.0131 3.37655 12.4543 1.92581 14.2323 1.92581C16.0102 1.92581 17.4514 3.37655 17.4514 5.16613ZM0.89563 12.6652L0.89563 18.0348C0.89563 18.5533 0.89563 18.8126 0.995878 19.0106C1.08406 19.1848 1.22477 19.3265 1.39783 19.4152C1.59458 19.5161 1.85214 19.5161 2.36726 19.5161H3.10307C3.61819 19.5161 3.87575 19.5161 4.0725 19.4152C4.24556 19.3265 4.38627 19.1848 4.47445 19.0106C4.5747 18.8126 4.5747 18.5533 4.5747 18.0348V12.6652C4.5747 12.1467 4.5747 11.8874 4.47445 11.6894C4.38627 11.5152 4.24556 11.3735 4.0725 11.2848C3.87575 11.1839 3.61819 11.1839 3.10307 11.1839L2.36726 11.1839C1.85214 11.1839 1.59458 11.1839 1.39783 11.2848C1.22477 11.3735 1.08406 11.5152 0.995879 11.6894C0.89563 11.8874 0.89563 12.1467 0.89563 12.6652Z" stroke="white" stroke-width="1.74261" stroke-linecap="round" stroke-linejoin="round"/>
</svg>
